<?xml version="1.0" encoding="UTF-8" standalone="no"?>
<!DOCTYPE svg PUBLIC "-//W3C//DTD SVG 1.1//EN"
 "http://www.w3.org/Graphics/SVG/1.1/DTD/svg11.dtd">
<!-- Generated by graphviz version 14.1.3 (20260303.0454)
 -->
<!-- Title: AutoTimeLevel0 Pages: 1 -->
<svg width="617pt" height="413pt"
 viewBox="0.00 0.00 617.00 413.00" xmlns="http://www.w3.org/2000/svg" xmlns:xlink="http://www.w3.org/1999/xlink">
<g id="graph0" class="graph" transform="scale(1 1) rotate(0) translate(25.2 387.49)">
<title>AutoTimeLevel0</title>
<polygon fill="white" stroke="none" points="-25.2,25.2 -25.2,-387.49 591.92,-387.49 591.92,25.2 -25.2,25.2"/>
<text xml:space="preserve" text-anchor="middle" x="283.36" y="-338.49" font-family="Arial" font-size="22.00">AutoTime DFD — Level 0 (Context Diagram)</text>
<!-- Admin -->
<g id="node1" class="node">
<title>Admin</title>
<polygon fill="white" stroke="black" stroke-width="1.4" points="71.07,-324 5.42,-324 5.42,-288 71.07,-288 71.07,-324"/>
<text xml:space="preserve" text-anchor="middle" x="38.24" y="-302.1" font-family="Arial" font-size="13.00">Admin</text>
</g>
<!-- Teacher -->
<g id="node2" class="node">
<title>Teacher</title>
<polygon fill="white" stroke="black" stroke-width="1.4" points="76.49,-180 0,-180 0,-144 76.49,-144 76.49,-180"/>
<text xml:space="preserve" text-anchor="middle" x="38.24" y="-158.1" font-family="Arial" font-size="13.00">Teacher</text>
</g>
<!-- Admin&#45;&gt;Teacher -->
<!-- AutoTime -->
<g id="node4" class="node">
<title>AutoTime</title>
<path fill="white" stroke="black" stroke-width="1.4" d="M330.37,-113.4C330.37,-113.4 554.72,-113.4 554.72,-113.4 560.72,-113.4 566.72,-119.4 566.72,-125.4 566.72,-125.4 566.72,-198.6 566.72,-198.6 566.72,-204.6 560.72,-210.6 554.72,-210.6 554.72,-210.6 330.37,-210.6 330.37,-210.6 324.37,-210.6 318.37,-204.6 318.37,-198.6 318.37,-198.6 318.37,-125.4 318.37,-125.4 318.37,-119.4 324.37,-113.4 330.37,-113.4"/>
<text xml:space="preserve" text-anchor="middle" x="336.38" y="-158.52" font-family="Arial" font-size="13.00">0</text>
<polyline fill="none" stroke="black" stroke-width="1.4" points="354.4,-114.24 354.4,-210.6"/>
<text xml:space="preserve" text-anchor="middle" x="460.56" y="-166.32" font-family="Arial" font-size="13.00">AutoTime</text>
<text xml:space="preserve" text-anchor="middle" x="460.56" y="-150.72" font-family="Arial" font-size="13.00">Timetable Management System</text>
</g>
<!-- Admin&#45;&gt;AutoTime -->
<g id="edge3" class="edge">
<title>Admin&#45;&gt;AutoTime</title>
<path fill="none" stroke="black" stroke-width="1.1" d="M71.72,-305.18C136.66,-303.54 276.37,-300 276.37,-300 276.37,-300 329.74,-255.4 375.81,-216.91"/>
<polygon fill="black" stroke="black" stroke-width="1.1" points="377.49,-218.93 381.56,-212.11 374.13,-214.9 377.49,-218.93"/>
<text xml:space="preserve" text-anchor="middle" x="197.43" y="-318.89" font-family="Arial" font-size="10.00">Academic data; generation request;</text>
<text xml:space="preserve" text-anchor="middle" x="197.43" y="-306.89" font-family="Arial" font-size="10.00">leave decision; timetable query</text>
</g>
<!-- Student -->
<g id="node3" class="node">
<title>Student</title>
<polygon fill="white" stroke="black" stroke-width="1.4" points="75.05,-36 1.44,-36 1.44,0 75.05,0 75.05,-36"/>
<text xml:space="preserve" text-anchor="middle" x="38.24" y="-14.1" font-family="Arial" font-size="13.00">Student</text>
</g>
<!-- Teacher&#45;&gt;Student -->
<!-- Teacher&#45;&gt;AutoTime -->
<g id="edge5" class="edge">
<title>Teacher&#45;&gt;AutoTime</title>
<path fill="none" stroke="black" stroke-width="1.1" d="M77.09,-162C129.75,-162 227.78,-162 308.91,-162"/>
<polygon fill="black" stroke="black" stroke-width="1.1" points="308.55,-164.63 316.05,-162 308.55,-159.38 308.55,-164.63"/>
<text xml:space="preserve" text-anchor="middle" x="197.43" y="-165" font-family="Arial" font-size="10.00">Leave request; timetable query</text>
</g>
<!-- Student&#45;&gt;AutoTime -->
<g id="edge7" class="edge">
<title>Student&#45;&gt;AutoTime</title>
<path fill="none" stroke="black" stroke-width="1.1" d="M75.52,-30.54C141.94,-53.51 276.37,-100 276.37,-100 276.37,-100 290.1,-105.16 309.66,-112.5"/>
<polygon fill="black" stroke="black" stroke-width="1.1" points="308.54,-114.88 316.49,-115.06 310.39,-109.97 308.54,-114.88"/>
<text xml:space="preserve" text-anchor="middle" x="197.43" y="-103" font-family="Arial" font-size="10.00">Class timetable query</text>
</g>
<!-- AutoTime&#45;&gt;Admin -->
<g id="edge4" class="edge">
<title>AutoTime&#45;&gt;Admin</title>
<path fill="none" stroke="black" stroke-width="1.1" d="M318.03,-200.62C226.83,-229.13 118.49,-263 118.49,-263 118.49,-263 98.95,-273.6 79.27,-284.28"/>
<polygon fill="black" stroke="black" stroke-width="1.1" points="78.28,-281.83 72.94,-287.72 80.78,-286.45 78.28,-281.83"/>
<text xml:space="preserve" text-anchor="middle" x="197.43" y="-278" font-family="Arial" font-size="10.00">Generation status; leave request;</text>
<text xml:space="preserve" text-anchor="middle" x="197.43" y="-266" font-family="Arial" font-size="10.00">admin timetable</text>
</g>
<!-- AutoTime&#45;&gt;Teacher -->
<g id="edge6" class="edge">
<title>AutoTime&#45;&gt;Teacher</title>
<path fill="none" stroke="black" stroke-width="1.1" d="M318.05,-134.34C294.15,-128.98 276.37,-125 276.37,-125 276.37,-125 118.49,-125 118.49,-125 118.49,-125 102.65,-132.4 85.13,-140.58"/>
<polygon fill="black" stroke="black" stroke-width="1.1" points="84.2,-138.11 78.52,-143.66 86.43,-142.87 84.2,-138.11"/>
<text xml:space="preserve" text-anchor="middle" x="197.43" y="-140" font-family="Arial" font-size="10.00">Leave status; proxy assignment;</text>
<text xml:space="preserve" text-anchor="middle" x="197.43" y="-128" font-family="Arial" font-size="10.00">personal timetable</text>
</g>
<!-- AutoTime&#45;&gt;Student -->
<g id="edge8" class="edge">
<title>AutoTime&#45;&gt;Student</title>
<path fill="none" stroke="black" stroke-width="1.1" d="M383.77,-113.03C336.14,-72.66 276.37,-22 276.37,-22 276.37,-22 153.25,-19.92 84.44,-18.76"/>
<polygon fill="black" stroke="black" stroke-width="1.1" points="84.72,-16.14 77.18,-18.64 84.64,-21.39 84.72,-16.14"/>
<text xml:space="preserve" text-anchor="middle" x="197.43" y="-25" font-family="Arial" font-size="10.00">Class timetable</text>
</g>
</g>
</svg>
