<?xml version="1.0" encoding="UTF-8" standalone="no"?>
<!DOCTYPE svg PUBLIC "-//W3C//DTD SVG 1.1//EN"
 "http://www.w3.org/Graphics/SVG/1.1/DTD/svg11.dtd">
<!-- Generated by graphviz version 14.1.3 (20260303.0454)
 -->
<!-- Title: G Pages: 1 -->
<svg width="1244pt" height="967pt"
 viewBox="0.00 0.00 1244.00 967.00" xmlns="http://www.w3.org/2000/svg" xmlns:xlink="http://www.w3.org/1999/xlink">
<g id="graph0" class="graph" transform="scale(1 1) rotate(0) translate(25.2 941.85)">
<title>G</title>
<polygon fill="white" stroke="none" points="-25.2,25.2 -25.2,-941.85 1218.35,-941.85 1218.35,25.2 -25.2,25.2"/>
<text xml:space="preserve" text-anchor="middle" x="596.57" y="-892.85" font-family="Arial" font-size="22.00" fill="#142d4e">DFD Level 2 — decompose process 3.0</text>
<!-- A -->
<g id="node1" class="node">
<title>A</title>
<polygon fill="#fff1dc" stroke="#53769d" stroke-width="1.2" points="237.38,-880.45 174.62,-880.45 174.62,-844.45 237.38,-844.45 237.38,-880.45"/>
<text xml:space="preserve" text-anchor="middle" x="206" y="-858.55" font-family="Arial" font-size="13.00" fill="#173454">Admin</text>
</g>
<!-- R -->
<g id="node6" class="node">
<title>R</title>
<ellipse fill="#f0f6fc" stroke="#53769d" stroke-width="1.2" cx="724" cy="-735.34" rx="111.83" ry="45.31"/>
<text xml:space="preserve" text-anchor="middle" x="724" y="-747.04" font-family="Arial" font-size="13.00" fill="#173454">3.1</text>
<text xml:space="preserve" text-anchor="middle" x="724" y="-731.44" font-family="Arial" font-size="13.00" fill="#173454">Read requirements</text>
<text xml:space="preserve" text-anchor="middle" x="724" y="-715.84" font-family="Arial" font-size="13.00" fill="#173454">and construct sessions</text>
</g>
<!-- A&#45;&gt;R -->
<g id="edge1" class="edge">
<title>A&#45;&gt;R</title>
<path fill="none" stroke="#637991" stroke-width="1.1" d="M237.62,-853.81C312.08,-835.83 501.12,-790.17 620.4,-761.36"/>
<polygon fill="#637991" stroke="#637991" stroke-width="1.1" points="620.66,-763.82 626.89,-759.8 619.51,-759.06 620.66,-763.82"/>
<text xml:space="preserve" text-anchor="middle" x="476.79" y="-808.65" font-family="Arial" font-size="10.00" fill="#344e68">Generation request</text>
</g>
<!-- M -->
<g id="node10" class="node">
<title>M</title>
<ellipse fill="#f0f6fc" stroke="#53769d" stroke-width="1.2" cx="395" cy="-45.31" rx="98.05" ry="45.31"/>
<text xml:space="preserve" text-anchor="middle" x="395" y="-57.01" font-family="Arial" font-size="13.00" fill="#173454">3.5</text>
<text xml:space="preserve" text-anchor="middle" x="395" y="-41.41" font-family="Arial" font-size="13.00" fill="#173454">Validate and apply</text>
<text xml:space="preserve" text-anchor="middle" x="395" y="-25.81" font-family="Arial" font-size="13.00" fill="#173454">manual slot change</text>
</g>
<!-- A&#45;&gt;M -->
<g id="edge12" class="edge">
<title>A&#45;&gt;M</title>
<path fill="none" stroke="#637991" stroke-width="1.1" d="M177.36,-844.06C120.75,-809.68 0,-736.34 0,-736.34 0,-736.34 0,-736.34 0,-171.42 0,-171.42 157,-115.62 157,-115.62 157,-115.62 237.05,-92.31 304.3,-72.73"/>
<polygon fill="#637991" stroke="#637991" stroke-width="1.1" points="304.79,-75.13 310.83,-70.82 303.42,-70.43 304.79,-75.13"/>
<text xml:space="preserve" text-anchor="middle" x="56.42" y="-427.1" font-family="Arial" font-size="10.00" fill="#344e68">Edit / assignment request</text>
</g>
<!-- D1 -->
<g id="node2" class="node">
<title>D1</title>
<path fill="#f0f6fc" stroke="none" stroke-width="1.2" d="M1130.2,-882.25C1130.2,-882.25 995.8,-882.25 995.8,-882.25 989.8,-882.25 983.8,-876.25 983.8,-870.25 983.8,-870.25 983.8,-854.65 983.8,-854.65 983.8,-848.65 989.8,-842.65 995.8,-842.65 995.8,-842.65 1130.2,-842.65 1130.2,-842.65 1136.2,-842.65 1142.2,-848.65 1142.2,-854.65 1142.2,-854.65 1142.2,-870.25 1142.2,-870.25 1142.2,-876.25 1136.2,-882.25 1130.2,-882.25"/>
<text xml:space="preserve" text-anchor="start" x="995.8" y="-857.25" font-family="Arial" font-size="13.00" fill="#173454">D1 Accounts / teachers</text>
<polyline fill="none" stroke="#53769d" points="983.8,-842.65 1142.2,-842.65"/>
<polyline fill="none" stroke="#53769d" points="1142.2,-882.25 983.8,-882.25"/>
</g>
<!-- D1&#45;&gt;R -->
<g id="edge2" class="edge">
<title>D1&#45;&gt;R</title>
<path fill="none" stroke="#637991" stroke-width="1.1" d="M1012.25,-842.72C959.99,-823.44 877.48,-792.99 814.1,-769.59"/>
<polygon fill="#637991" stroke="#637991" stroke-width="1.1" points="815.06,-767.34 807.64,-767.21 813.36,-771.93 815.06,-767.34"/>
<text xml:space="preserve" text-anchor="middle" x="987.58" y="-808.65" font-family="Arial" font-size="10.00" fill="#344e68">Teacher constraints</text>
</g>
<!-- D1&#45;&gt;M -->
<g id="edge13" class="edge">
<title>D1&#45;&gt;M</title>
<path fill="none" stroke="#637991" stroke-width="1.1" d="M1071.83,-842.72C1088.29,-807.82 1122,-736.34 1122,-736.34 1122,-736.34 1122,-736.34 1122,-171.42 1122,-171.42 694.52,-97.86 495.15,-63.55"/>
<polygon fill="#637991" stroke="#637991" stroke-width="1.1" points="495.66,-61.15 488.35,-62.38 494.83,-65.98 495.66,-61.15"/>
<text xml:space="preserve" text-anchor="middle" x="1157.57" y="-427.1" font-family="Arial" font-size="10.00" fill="#344e68">Teacher identity</text>
</g>
<!-- D2 -->
<g id="node3" class="node">
<title>D2</title>
<path fill="#f0f6fc" stroke="none" stroke-width="1.2" d="M925.75,-882.25C925.75,-882.25 734.25,-882.25 734.25,-882.25 728.25,-882.25 722.25,-876.25 722.25,-870.25 722.25,-870.25 722.25,-854.65 722.25,-854.65 722.25,-848.65 728.25,-842.65 734.25,-842.65 734.25,-842.65 925.75,-842.65 925.75,-842.65 931.75,-842.65 937.75,-848.65 937.75,-854.65 937.75,-854.65 937.75,-870.25 937.75,-870.25 937.75,-876.25 931.75,-882.25 925.75,-882.25"/>
<text xml:space="preserve" text-anchor="start" x="734.25" y="-857.25" font-family="Arial" font-size="13.00" fill="#173454">D2 Academic data / configuration</text>
<polyline fill="none" stroke="#53769d" points="722.25,-842.65 937.75,-842.65"/>
<polyline fill="none" stroke="#53769d" points="937.75,-882.25 722.25,-882.25"/>
</g>
<!-- D2&#45;&gt;R -->
<g id="edge3" class="edge">
<title>D2&#45;&gt;R</title>
<path fill="none" stroke="#637991" stroke-width="1.1" d="M814.13,-842.72C801.26,-827.53 782.51,-805.4 765.45,-785.26"/>
<polygon fill="#637991" stroke="#637991" stroke-width="1.1" points="767.45,-783.83 761.05,-780.07 763.71,-787 767.45,-783.83"/>
<text xml:space="preserve" text-anchor="middle" x="847.15" y="-808.65" font-family="Arial" font-size="10.00" fill="#344e68">Subjects / classes / slots</text>
</g>
<!-- D2&#45;&gt;M -->
<g id="edge14" class="edge">
<title>D2&#45;&gt;M</title>
<path fill="none" stroke="#637991" stroke-width="1.1" d="M863.5,-842.88C885.03,-830.94 909,-817.65 909,-817.65 909,-817.65 931,-736.34 931,-736.34 931,-736.34 931,-736.34 931,-171.42 931,-171.42 644.16,-104.47 490.15,-68.52"/>
<polygon fill="#637991" stroke="#637991" stroke-width="1.1" points="491.01,-66.21 483.63,-67 489.89,-70.98 491.01,-66.21"/>
<text xml:space="preserve" text-anchor="middle" x="991.3" y="-427.1" font-family="Arial" font-size="10.00" fill="#344e68">Class / subject / slot details</text>
</g>
<!-- D3 -->
<g id="node4" class="node">
<title>D3</title>
<path fill="#f0f6fc" stroke="none" stroke-width="1.2" d="M471.65,-192.22C471.65,-192.22 394.35,-192.22 394.35,-192.22 388.35,-192.22 382.35,-186.22 382.35,-180.22 382.35,-180.22 382.35,-164.62 382.35,-164.62 382.35,-158.62 388.35,-152.62 394.35,-152.62 394.35,-152.62 471.65,-152.62 471.65,-152.62 477.65,-152.62 483.65,-158.62 483.65,-164.62 483.65,-164.62 483.65,-180.22 483.65,-180.22 483.65,-186.22 477.65,-192.22 471.65,-192.22"/>
<text xml:space="preserve" text-anchor="start" x="394.35" y="-167.22" font-family="Arial" font-size="13.00" fill="#173454">D3 Timetable</text>
<polyline fill="none" stroke="#53769d" points="382.35,-152.62 483.65,-152.62"/>
<polyline fill="none" stroke="#53769d" points="483.65,-192.22 382.35,-192.22"/>
</g>
<!-- D3&#45;&gt;M -->
<g id="edge15" class="edge">
<title>D3&#45;&gt;M</title>
<path fill="none" stroke="#637991" stroke-width="1.1" d="M385.54,-152.72C355.33,-140.82 321.86,-127.62 321.86,-127.62 321.86,-127.62 321.86,-115.62 321.86,-115.62 321.86,-115.62 332.96,-105.1 346.52,-92.25"/>
<polygon fill="#637991" stroke="#637991" stroke-width="1.1" points="347.85,-94.37 351.24,-87.78 344.48,-90.81 347.85,-94.37"/>
<text xml:space="preserve" text-anchor="middle" x="372.43" y="-118.62" font-family="Arial" font-size="10.00" fill="#344e68">Current slots / conflicts</text>
</g>
<!-- D5 -->
<g id="node5" class="node">
<title>D5</title>
<path fill="#f0f6fc" stroke="none" stroke-width="1.2" d="M697.23,-192.22C697.23,-192.22 570.77,-192.22 570.77,-192.22 564.77,-192.22 558.77,-186.22 558.77,-180.22 558.77,-180.22 558.77,-164.62 558.77,-164.62 558.77,-158.62 564.77,-152.62 570.77,-152.62 570.77,-152.62 697.23,-152.62 697.23,-152.62 703.23,-152.62 709.23,-158.62 709.23,-164.62 709.23,-164.62 709.23,-180.22 709.23,-180.22 709.23,-186.22 703.23,-192.22 697.23,-192.22"/>
<text xml:space="preserve" text-anchor="start" x="570.77" y="-167.22" font-family="Arial" font-size="13.00" fill="#173454">D5 Generation history</text>
<polyline fill="none" stroke="#53769d" points="558.77,-152.62 709.23,-152.62"/>
<polyline fill="none" stroke="#53769d" points="709.23,-192.22 558.77,-192.22"/>
</g>
<!-- C -->
<g id="node7" class="node">
<title>C</title>
<ellipse fill="#f0f6fc" stroke="#53769d" stroke-width="1.2" cx="724" cy="-582.72" rx="105.2" ry="45.31"/>
<text xml:space="preserve" text-anchor="middle" x="724" y="-594.42" font-family="Arial" font-size="13.00" fill="#173454">3.2</text>
<text xml:space="preserve" text-anchor="middle" x="724" y="-578.82" font-family="Arial" font-size="13.00" fill="#173454">Check feasibility</text>
<text xml:space="preserve" text-anchor="middle" x="724" y="-563.22" font-family="Arial" font-size="13.00" fill="#173454">and find assignments</text>
</g>
<!-- R&#45;&gt;C -->
<g id="edge4" class="edge">
<title>R&#45;&gt;C</title>
<path fill="none" stroke="#637991" stroke-width="1.1" d="M724,-689.56C724,-673.01 724,-654.1 724,-636.89"/>
<polygon fill="#637991" stroke="#637991" stroke-width="1.1" points="726.45,-637.25 724,-630.25 721.55,-637.25 726.45,-637.25"/>
<text xml:space="preserve" text-anchor="middle" x="782.08" y="-656.03" font-family="Arial" font-size="10.00" fill="#344e68">Valid session occurrences</text>
</g>
<!-- W -->
<g id="node9" class="node">
<title>W</title>
<ellipse fill="#f0f6fc" stroke="#53769d" stroke-width="1.2" cx="475" cy="-288.5" rx="84.23" ry="34.28"/>
<text xml:space="preserve" text-anchor="middle" x="475" y="-292.4" font-family="Arial" font-size="13.00" fill="#173454">3.4</text>
<text xml:space="preserve" text-anchor="middle" x="475" y="-276.8" font-family="Arial" font-size="13.00" fill="#173454">Persist outcome</text>
</g>
<!-- R&#45;&gt;W -->
<g id="edge5" class="edge">
<title>R&#45;&gt;W</title>
<path fill="none" stroke="#637991" stroke-width="1.1" d="M672.26,-694.66C589.02,-630.83 434.6,-512.41 434.6,-512.41 434.6,-512.41 434.6,-500.41 434.6,-500.41 434.6,-500.41 455.22,-392.76 467,-331.27"/>
<polygon fill="#637991" stroke="#637991" stroke-width="1.1" points="469.37,-331.89 468.28,-324.56 464.56,-330.97 469.37,-331.89"/>
<text xml:space="preserve" text-anchor="middle" x="503.8" y="-503.41" font-family="Arial" font-size="10.00" fill="#344e68">Invalid&#45;requirement diagnostics</text>
</g>
<!-- V -->
<g id="node8" class="node">
<title>V</title>
<ellipse fill="#f0f6fc" stroke="#53769d" stroke-width="1.2" cx="769" cy="-430.1" rx="92.42" ry="45.31"/>
<text xml:space="preserve" text-anchor="middle" x="769" y="-441.8" font-family="Arial" font-size="13.00" fill="#173454">3.3</text>
<text xml:space="preserve" text-anchor="middle" x="769" y="-426.2" font-family="Arial" font-size="13.00" fill="#173454">Optimize and</text>
<text xml:space="preserve" text-anchor="middle" x="769" y="-410.6" font-family="Arial" font-size="13.00" fill="#173454">audit assignments</text>
</g>
<!-- C&#45;&gt;V -->
<g id="edge6" class="edge">
<title>C&#45;&gt;V</title>
<path fill="none" stroke="#637991" stroke-width="1.1" d="M737.26,-537.34C742.32,-520.41 748.13,-500.95 753.39,-483.35"/>
<polygon fill="#637991" stroke="#637991" stroke-width="1.1" points="755.63,-484.42 755.28,-477.01 750.93,-483.02 755.63,-484.42"/>
<text xml:space="preserve" text-anchor="middle" x="793.71" y="-503.41" font-family="Arial" font-size="10.00" fill="#344e68">Feasible assignment</text>
</g>
<!-- C&#45;&gt;W -->
<g id="edge7" class="edge">
<title>C&#45;&gt;W</title>
<path fill="none" stroke="#637991" stroke-width="1.1" d="M660.64,-546.17C605.55,-515.26 534.5,-475.41 534.5,-475.41 534.5,-475.41 505.78,-385.66 488.24,-330.88"/>
<polygon fill="#637991" stroke="#637991" stroke-width="1.1" points="490.61,-330.24 486.14,-324.32 485.94,-331.74 490.61,-330.24"/>
<text xml:space="preserve" text-anchor="middle" x="596.75" y="-427.1" font-family="Arial" font-size="10.00" fill="#344e68">Failure / timeout diagnostics</text>
</g>
<!-- V&#45;&gt;W -->
<g id="edge8" class="edge">
<title>V&#45;&gt;W</title>
<path fill="none" stroke="#637991" stroke-width="1.1" d="M703.02,-397.77C653.2,-374.11 585.33,-341.89 536.61,-318.76"/>
<polygon fill="#637991" stroke="#637991" stroke-width="1.1" points="537.84,-316.63 530.47,-315.84 535.74,-321.06 537.84,-316.63"/>
<text xml:space="preserve" text-anchor="middle" x="692.87" y="-350.78" font-family="Arial" font-size="10.00" fill="#344e68">Audited result / validation failure</text>
</g>
<!-- W&#45;&gt;A -->
<g id="edge11" class="edge">
<title>W&#45;&gt;A</title>
<path fill="none" stroke="#637991" stroke-width="1.1" d="M458.16,-322.42C423.65,-389.86 348.16,-537.41 348.16,-537.41 348.16,-537.41 250.42,-760.19 217.03,-836.31"/>
<polygon fill="#637991" stroke="#637991" stroke-width="1.1" points="214.88,-835.11 214.31,-842.51 219.37,-837.08 214.88,-835.11"/>
<text xml:space="preserve" text-anchor="middle" x="404.58" y="-579.72" font-family="Arial" font-size="10.00" fill="#344e68">Outcome and diagnostics</text>
</g>
<!-- W&#45;&gt;D3 -->
<g id="edge9" class="edge">
<title>W&#45;&gt;D3</title>
<path fill="none" stroke="#637991" stroke-width="1.1" d="M450.34,-255.29C440.02,-241.82 430.38,-229.22 430.38,-229.22 430.38,-229.22 430.38,-217.22 430.38,-217.22 430.38,-217.22 430.84,-209.43 431.38,-200.43"/>
<polygon fill="#637991" stroke="#637991" stroke-width="1.1" points="433.81,-200.79 431.79,-193.66 428.92,-200.5 433.81,-200.79"/>
<text xml:space="preserve" text-anchor="middle" x="510.69" y="-220.22" font-family="Arial" font-size="10.00" fill="#344e68">Successful master replacement only</text>
</g>
<!-- W&#45;&gt;D5 -->
<g id="edge10" class="edge">
<title>W&#45;&gt;D5</title>
<path fill="none" stroke="#637991" stroke-width="1.1" d="M528.33,-261.6C560.38,-246.04 595,-229.22 595,-229.22 595,-229.22 605.83,-213.72 616.08,-199.06"/>
<polygon fill="#637991" stroke="#637991" stroke-width="1.1" points="618.06,-200.51 620.06,-193.37 614.04,-197.7 618.06,-200.51"/>
<text xml:space="preserve" text-anchor="middle" x="654.7" y="-220.22" font-family="Arial" font-size="10.00" fill="#344e68">Success / failure record</text>
</g>
<!-- M&#45;&gt;A -->
<g id="edge17" class="edge">
<title>M&#45;&gt;A</title>
<path fill="none" stroke="#637991" stroke-width="1.1" d="M335.1,-81.66C272.41,-118.66 183,-171.42 183,-171.42 183,-736.34 183,-736.34 183,-736.34 183,-736.34 194.56,-799.2 201.28,-835.8"/>
<polygon fill="#637991" stroke="#637991" stroke-width="1.1" points="198.83,-835.98 202.5,-842.42 203.64,-835.09 198.83,-835.98"/>
<text xml:space="preserve" text-anchor="middle" x="244.15" y="-427.1" font-family="Arial" font-size="10.00" fill="#344e68">Result / validation feedback</text>
</g>
<!-- M&#45;&gt;D3 -->
<g id="edge16" class="edge">
<title>M&#45;&gt;D3</title>
<path fill="none" stroke="#637991" stroke-width="1.1" d="M415.27,-90.21C421.62,-103.96 427,-115.62 427,-115.62 427,-115.62 428.58,-130.29 430.11,-144.58"/>
<polygon fill="#637991" stroke="#637991" stroke-width="1.1" points="427.64,-144.49 430.82,-151.19 432.51,-143.97 427.64,-144.49"/>
<text xml:space="preserve" text-anchor="middle" x="474.85" y="-118.62" font-family="Arial" font-size="10.00" fill="#344e68">Accepted slot update</text>
</g>
</g>
</svg>
